<mxfile host="app.diagrams.net" agent="Mozilla/5.0 (Windows NT 10.0; Win64; x64) AppleWebKit/537.36 (KHTML, like Gecko) Chrome/137.0.0.0 Safari/537.36 Edg/137.0.0.0" version="27.1.6">
  <diagram name="Página-1" id="S-sUXUciNtFG5edQxRUR">
    <mxGraphModel grid="1" page="1" gridSize="10" guides="1" tooltips="1" connect="1" arrows="1" fold="1" pageScale="1" pageWidth="827" pageHeight="1169" math="0" shadow="0">
      <root>
        <mxCell id="0" />
        <mxCell id="1" parent="0" />
        <mxCell id="bs0b1OAsjzUEzCfOvRUt-1" value="Administrador" style="html=1;whiteSpace=wrap;" vertex="1" parent="1">
          <mxGeometry x="80" y="94" width="110" height="50" as="geometry" />
        </mxCell>
        <mxCell id="bs0b1OAsjzUEzCfOvRUt-2" value="Sistema&lt;span style=&quot;color: rgba(0, 0, 0, 0); font-family: monospace; font-size: 0px; text-align: start; text-wrap-mode: nowrap;&quot;&gt;%3CmxGraphModel%3E%3Croot%3E%3CmxCell%20id%3D%220%22%2F%3E%3CmxCell%20id%3D%221%22%20parent%3D%220%22%2F%3E%3CmxCell%20id%3D%222%22%20value%3D%22Usuario%22%20style%3D%22html%3D1%3BwhiteSpace%3Dwrap%3B%22%20vertex%3D%221%22%20parent%3D%221%22%3E%3CmxGeometry%20x%3D%2270%22%20y%3D%2240%22%20width%3D%22110%22%20height%3D%2250%22%20as%3D%22geometry%22%2F%3E%3C%2FmxCell%3E%3C%2Froot%3E%3C%2FmxGraphModel%3E&lt;/span&gt;" style="html=1;whiteSpace=wrap;" vertex="1" parent="1">
          <mxGeometry x="280" y="94" width="110" height="50" as="geometry" />
        </mxCell>
        <mxCell id="bs0b1OAsjzUEzCfOvRUt-3" value="Base de datos" style="html=1;whiteSpace=wrap;" vertex="1" parent="1">
          <mxGeometry x="480" y="94" width="110" height="50" as="geometry" />
        </mxCell>
        <mxCell id="bs0b1OAsjzUEzCfOvRUt-4" value="Administrador" style="html=1;whiteSpace=wrap;" vertex="1" parent="1">
          <mxGeometry x="80" y="770" width="110" height="50" as="geometry" />
        </mxCell>
        <mxCell id="bs0b1OAsjzUEzCfOvRUt-5" value="Sistema&lt;span style=&quot;color: rgba(0, 0, 0, 0); font-family: monospace; font-size: 0px; text-align: start; text-wrap-mode: nowrap;&quot;&gt;%3CmxGraphModel%3E%3Croot%3E%3CmxCell%20id%3D%220%22%2F%3E%3CmxCell%20id%3D%221%22%20parent%3D%220%22%2F%3E%3CmxCell%20id%3D%222%22%20value%3D%22Usuario%22%20style%3D%22html%3D1%3BwhiteSpace%3Dwrap%3B%22%20vertex%3D%221%22%20parent%3D%221%22%3E%3CmxGeometry%20x%3D%2270%22%20y%3D%2240%22%20width%3D%22110%22%20height%3D%2250%22%20as%3D%22geometry%22%2F%3E%3C%2FmxCell%3E%3C%2Froot%3E%3C%2FmxGraphModel%3E&lt;/span&gt;" style="html=1;whiteSpace=wrap;" vertex="1" parent="1">
          <mxGeometry x="286.25" y="770" width="110" height="50" as="geometry" />
        </mxCell>
        <mxCell id="bs0b1OAsjzUEzCfOvRUt-6" value="Base de datos" style="html=1;whiteSpace=wrap;" vertex="1" parent="1">
          <mxGeometry x="476.25" y="770" width="110" height="50" as="geometry" />
        </mxCell>
        <mxCell id="bs0b1OAsjzUEzCfOvRUt-7" value="" style="endArrow=none;dashed=1;html=1;rounded=0;entryX=0.5;entryY=1;entryDx=0;entryDy=0;exitX=0.5;exitY=0;exitDx=0;exitDy=0;" edge="1" parent="1" source="bs0b1OAsjzUEzCfOvRUt-9" target="bs0b1OAsjzUEzCfOvRUt-2">
          <mxGeometry width="50" height="50" relative="1" as="geometry">
            <mxPoint x="310" y="374" as="sourcePoint" />
            <mxPoint x="360" y="324" as="targetPoint" />
          </mxGeometry>
        </mxCell>
        <mxCell id="bs0b1OAsjzUEzCfOvRUt-8" value="" style="endArrow=none;dashed=1;html=1;rounded=0;entryX=0.5;entryY=1;entryDx=0;entryDy=0;" edge="1" parent="1" source="bs0b1OAsjzUEzCfOvRUt-23" target="bs0b1OAsjzUEzCfOvRUt-9">
          <mxGeometry width="50" height="50" relative="1" as="geometry">
            <mxPoint x="335.5" y="404" as="sourcePoint" />
            <mxPoint x="335" y="144" as="targetPoint" />
          </mxGeometry>
        </mxCell>
        <mxCell id="bs0b1OAsjzUEzCfOvRUt-9" value="" style="html=1;points=[[0,0,0,0,5],[0,1,0,0,-5],[1,0,0,0,5],[1,1,0,0,-5]];perimeter=orthogonalPerimeter;outlineConnect=0;targetShapes=umlLifeline;portConstraint=eastwest;newEdgeStyle={&quot;curved&quot;:0,&quot;rounded&quot;:0};" vertex="1" parent="1">
          <mxGeometry x="330" y="184" width="10" height="30" as="geometry" />
        </mxCell>
        <mxCell id="bs0b1OAsjzUEzCfOvRUt-10" value="" style="endArrow=classic;html=1;rounded=0;entryX=0;entryY=0;entryDx=0;entryDy=5;entryPerimeter=0;" edge="1" parent="1" target="bs0b1OAsjzUEzCfOvRUt-9">
          <mxGeometry width="50" height="50" relative="1" as="geometry">
            <mxPoint x="130" y="189" as="sourcePoint" />
            <mxPoint x="240" y="164" as="targetPoint" />
          </mxGeometry>
        </mxCell>
        <mxCell id="bs0b1OAsjzUEzCfOvRUt-11" value="1. Abrir perfil" style="text;html=1;align=center;verticalAlign=middle;whiteSpace=wrap;rounded=0;" vertex="1" parent="1">
          <mxGeometry x="130" y="164" width="200" height="20" as="geometry" />
        </mxCell>
        <mxCell id="bs0b1OAsjzUEzCfOvRUt-12" value="2. Mostrar datos de perfil" style="text;html=1;align=center;verticalAlign=middle;whiteSpace=wrap;rounded=0;" vertex="1" parent="1">
          <mxGeometry x="145" y="214" width="170" height="20" as="geometry" />
        </mxCell>
        <mxCell id="bs0b1OAsjzUEzCfOvRUt-13" value="" style="html=1;points=[[0,0,0,0,5],[0,1,0,0,-5],[1,0,0,0,5],[1,1,0,0,-5]];perimeter=orthogonalPerimeter;outlineConnect=0;targetShapes=umlLifeline;portConstraint=eastwest;newEdgeStyle={&quot;curved&quot;:0,&quot;rounded&quot;:0};" vertex="1" parent="1">
          <mxGeometry x="117.5" y="234" width="10" height="30" as="geometry" />
        </mxCell>
        <mxCell id="bs0b1OAsjzUEzCfOvRUt-14" value="" style="endArrow=classic;html=1;rounded=0;entryX=1;entryY=0;entryDx=0;entryDy=5;entryPerimeter=0;" edge="1" parent="1" target="bs0b1OAsjzUEzCfOvRUt-13">
          <mxGeometry width="50" height="50" relative="1" as="geometry">
            <mxPoint x="325" y="239" as="sourcePoint" />
            <mxPoint x="615" y="224" as="targetPoint" />
          </mxGeometry>
        </mxCell>
        <mxCell id="bs0b1OAsjzUEzCfOvRUt-15" value="" style="endArrow=none;dashed=1;html=1;rounded=0;exitX=0.5;exitY=0;exitDx=0;exitDy=0;entryX=0.5;entryY=1;entryDx=0;entryDy=0;" edge="1" parent="1" source="bs0b1OAsjzUEzCfOvRUt-42" target="bs0b1OAsjzUEzCfOvRUt-3">
          <mxGeometry width="50" height="50" relative="1" as="geometry">
            <mxPoint x="535" y="944" as="sourcePoint" />
            <mxPoint x="535" y="534" as="targetPoint" />
          </mxGeometry>
        </mxCell>
        <mxCell id="bs0b1OAsjzUEzCfOvRUt-16" value="" style="endArrow=none;dashed=1;html=1;rounded=0;exitX=0.449;exitY=-0.016;exitDx=0;exitDy=0;exitPerimeter=0;entryX=0.483;entryY=1.017;entryDx=0;entryDy=0;entryPerimeter=0;" edge="1" parent="1" source="bs0b1OAsjzUEzCfOvRUt-82" target="bs0b1OAsjzUEzCfOvRUt-13">
          <mxGeometry width="50" height="50" relative="1" as="geometry">
            <mxPoint x="124" y="943" as="sourcePoint" />
            <mxPoint x="121.99000000000001" y="324" as="targetPoint" />
            <Array as="points" />
          </mxGeometry>
        </mxCell>
        <mxCell id="bs0b1OAsjzUEzCfOvRUt-18" value="9. Notificación de éxito: Documento actualizado correctamente" style="text;html=1;align=center;verticalAlign=middle;whiteSpace=wrap;rounded=0;" vertex="1" parent="1">
          <mxGeometry x="136.25" y="680" width="190" height="20" as="geometry" />
        </mxCell>
        <mxCell id="bs0b1OAsjzUEzCfOvRUt-21" value="" style="endArrow=none;dashed=1;html=1;rounded=0;exitX=0.391;exitY=1.02;exitDx=0;exitDy=0;exitPerimeter=0;" edge="1" parent="1" source="bs0b1OAsjzUEzCfOvRUt-1" target="bs0b1OAsjzUEzCfOvRUt-13">
          <mxGeometry width="50" height="50" relative="1" as="geometry">
            <mxPoint x="123.5" y="145" as="sourcePoint" />
            <mxPoint x="123.5" y="524" as="targetPoint" />
          </mxGeometry>
        </mxCell>
        <mxCell id="bs0b1OAsjzUEzCfOvRUt-22" value="3. Pulsar botón &quot;Cambiar documento&quot;" style="text;html=1;align=center;verticalAlign=middle;whiteSpace=wrap;rounded=0;" vertex="1" parent="1">
          <mxGeometry x="145" y="254" width="170" height="20" as="geometry" />
        </mxCell>
        <mxCell id="bs0b1OAsjzUEzCfOvRUt-24" value="" style="endArrow=classic;html=1;rounded=0;entryX=0;entryY=0;entryDx=0;entryDy=5;entryPerimeter=0;" edge="1" parent="1" target="bs0b1OAsjzUEzCfOvRUt-23">
          <mxGeometry width="50" height="50" relative="1" as="geometry">
            <mxPoint x="140" y="279" as="sourcePoint" />
            <mxPoint x="222.5" y="234" as="targetPoint" />
          </mxGeometry>
        </mxCell>
        <mxCell id="bs0b1OAsjzUEzCfOvRUt-25" value="5. Notificación de error: Documento inválido" style="text;html=1;align=center;verticalAlign=middle;whiteSpace=wrap;rounded=0;" vertex="1" parent="1">
          <mxGeometry x="155" y="470" width="170" height="20" as="geometry" />
        </mxCell>
        <mxCell id="bs0b1OAsjzUEzCfOvRUt-26" value="" style="endArrow=none;dashed=1;html=1;rounded=0;exitX=0.449;exitY=-0.016;exitDx=0;exitDy=0;exitPerimeter=0;" edge="1" parent="1" source="bs0b1OAsjzUEzCfOvRUt-91" target="bs0b1OAsjzUEzCfOvRUt-27">
          <mxGeometry width="50" height="50" relative="1" as="geometry">
            <mxPoint x="116.5" y="1399" as="sourcePoint" />
            <mxPoint x="120.5" y="390" as="targetPoint" />
            <Array as="points" />
          </mxGeometry>
        </mxCell>
        <mxCell id="bs0b1OAsjzUEzCfOvRUt-27" value="" style="html=1;points=[[0,0,0,0,5],[0,1,0,0,-5],[1,0,0,0,5],[1,1,0,0,-5]];perimeter=orthogonalPerimeter;outlineConnect=0;targetShapes=umlLifeline;portConstraint=eastwest;newEdgeStyle={&quot;curved&quot;:0,&quot;rounded&quot;:0};" vertex="1" parent="1">
          <mxGeometry x="120" y="490" width="10" height="30" as="geometry" />
        </mxCell>
        <mxCell id="bs0b1OAsjzUEzCfOvRUt-28" value="7. Actualizar documento" style="text;html=1;align=center;verticalAlign=middle;whiteSpace=wrap;rounded=0;" vertex="1" parent="1">
          <mxGeometry x="331.5" y="600" width="190" height="20" as="geometry" />
        </mxCell>
        <mxCell id="bs0b1OAsjzUEzCfOvRUt-29" value="" style="html=1;points=[[0,0,0,0,5],[0,1,0,0,-5],[1,0,0,0,5],[1,1,0,0,-5]];perimeter=orthogonalPerimeter;outlineConnect=0;targetShapes=umlLifeline;portConstraint=eastwest;newEdgeStyle={&quot;curved&quot;:0,&quot;rounded&quot;:0};" vertex="1" parent="1">
          <mxGeometry x="331.5" y="390" width="10" height="30" as="geometry" />
        </mxCell>
        <mxCell id="bs0b1OAsjzUEzCfOvRUt-30" value="" style="endArrow=classic;html=1;rounded=0;entryX=1;entryY=1;entryDx=0;entryDy=-5;entryPerimeter=0;edgeStyle=orthogonalEdgeStyle;exitX=1;exitY=0;exitDx=0;exitDy=5;exitPerimeter=0;" edge="1" parent="1" source="bs0b1OAsjzUEzCfOvRUt-29" target="bs0b1OAsjzUEzCfOvRUt-29">
          <mxGeometry width="50" height="50" relative="1" as="geometry">
            <mxPoint x="341.5" y="390" as="sourcePoint" />
            <mxPoint x="341.5" y="410" as="targetPoint" />
            <Array as="points">
              <mxPoint x="377.5" y="395" />
              <mxPoint x="377.5" y="415" />
            </Array>
          </mxGeometry>
        </mxCell>
        <mxCell id="bs0b1OAsjzUEzCfOvRUt-31" value="6. Validar documento" style="text;html=1;align=center;verticalAlign=middle;whiteSpace=wrap;rounded=0;" vertex="1" parent="1">
          <mxGeometry x="377.5" y="395" width="87.5" height="20" as="geometry" />
        </mxCell>
        <mxCell id="bs0b1OAsjzUEzCfOvRUt-32" value="6. Notificación de éxito: Documento válido" style="text;html=1;align=center;verticalAlign=middle;whiteSpace=wrap;rounded=0;" vertex="1" parent="1">
          <mxGeometry x="155" y="520" width="170" height="20" as="geometry" />
        </mxCell>
        <mxCell id="bs0b1OAsjzUEzCfOvRUt-33" value="" style="html=1;points=[[0,0,0,0,5],[0,1,0,0,-5],[1,0,0,0,5],[1,1,0,0,-5]];perimeter=orthogonalPerimeter;outlineConnect=0;targetShapes=umlLifeline;portConstraint=eastwest;newEdgeStyle={&quot;curved&quot;:0,&quot;rounded&quot;:0};" vertex="1" parent="1">
          <mxGeometry x="120" y="540" width="10" height="30" as="geometry" />
        </mxCell>
        <mxCell id="bs0b1OAsjzUEzCfOvRUt-34" value="alt" style="shape=umlFrame;whiteSpace=wrap;html=1;pointerEvents=0;" vertex="1" parent="1">
          <mxGeometry x="110" y="430" width="437.5" height="150" as="geometry" />
        </mxCell>
        <mxCell id="bs0b1OAsjzUEzCfOvRUt-35" value="" style="endArrow=none;dashed=1;html=1;rounded=0;exitX=0.5;exitY=0;exitDx=0;exitDy=0;" edge="1" parent="1" source="bs0b1OAsjzUEzCfOvRUt-49" target="bs0b1OAsjzUEzCfOvRUt-29">
          <mxGeometry width="50" height="50" relative="1" as="geometry">
            <mxPoint x="327.5" y="490" as="sourcePoint" />
            <mxPoint x="337.5" y="430" as="targetPoint" />
          </mxGeometry>
        </mxCell>
        <mxCell id="bs0b1OAsjzUEzCfOvRUt-39" value="" style="endArrow=open;endSize=12;dashed=1;html=1;rounded=0;entryX=1;entryY=0;entryDx=0;entryDy=5;entryPerimeter=0;" edge="1" parent="1" target="bs0b1OAsjzUEzCfOvRUt-33">
          <mxGeometry width="160" relative="1" as="geometry">
            <mxPoint x="337.5" y="545" as="sourcePoint" />
            <mxPoint x="145" y="600" as="targetPoint" />
          </mxGeometry>
        </mxCell>
        <mxCell id="bs0b1OAsjzUEzCfOvRUt-40" value="" style="endArrow=open;endSize=12;dashed=1;html=1;rounded=0;entryX=1;entryY=0;entryDx=0;entryDy=5;entryPerimeter=0;" edge="1" parent="1" target="bs0b1OAsjzUEzCfOvRUt-27">
          <mxGeometry width="160" relative="1" as="geometry">
            <mxPoint x="337.5" y="495" as="sourcePoint" />
            <mxPoint x="207.5" y="540" as="targetPoint" />
          </mxGeometry>
        </mxCell>
        <mxCell id="bs0b1OAsjzUEzCfOvRUt-41" value="" style="endArrow=none;dashed=1;html=1;rounded=0;exitX=0.5;exitY=0;exitDx=0;exitDy=0;entryX=0.5;entryY=1;entryDx=0;entryDy=0;" edge="1" parent="1" source="bs0b1OAsjzUEzCfOvRUt-6" target="bs0b1OAsjzUEzCfOvRUt-42">
          <mxGeometry width="50" height="50" relative="1" as="geometry">
            <mxPoint x="531.25" y="765" as="sourcePoint" />
            <mxPoint x="535.5" y="210" as="targetPoint" />
          </mxGeometry>
        </mxCell>
        <mxCell id="bs0b1OAsjzUEzCfOvRUt-42" value="&lt;span style=&quot;color: rgb(237, 237, 237); font-family: monospace; font-size: 0px; text-align: start;&quot;&gt;%3CmxGraphModel%3E%3Croot%3E%3CmxCell%20id%3D%220%22%2F%3E%3CmxCell%20id%3D%221%22%20parent%3D%220%22%2F%3E%3CmxCell%20id%3D%222%22%20value%3D%22%22%20style%3D%22html%3D1%3Bpoints%3D%5B%5B0%2C0%2C0%2C0%2C5%5D%2C%5B0%2C1%2C0%2C0%2C-5%5D%2C%5B1%2C0%2C0%2C0%2C5%5D%2C%5B1%2C1%2C0%2C0%2C-5%5D%5D%3Bperimeter%3DorthogonalPerimeter%3BoutlineConnect%3D0%3BtargetShapes%3DumlLifeline%3BportConstraint%3Deastwest%3BnewEdgeStyle%3D%7B%26quot%3Bcurved%26quot%3B%3A0%2C%26quot%3Brounded%26quot%3B%3A0%7D%3B%22%20vertex%3D%221%22%20parent%3D%221%22%3E%3CmxGeometry%20x%3D%2285%22%20y%3D%22280%22%20width%3D%2210%22%20height%3D%2230%22%20as%3D%22geometry%22%2F%3E%3C%2FmxCell%3E%3C%2Froot%3E%3C%2FmxGraphModel%3E&lt;/span&gt;&lt;span style=&quot;color: rgb(237, 237, 237); font-family: monospace; font-size: 0px; text-align: start;&quot;&gt;%3CmxGraphModel%3E%3Croot%3E%3CmxCell%20id%3D%220%22%2F%3E%3CmxCell%20id%3D%221%22%20parent%3D%220%22%2F%3E%3CmxCell%20id%3D%222%22%20value%3D%22%22%20style%3D%22html%3D1%3Bpoints%3D%5B%5B0%2C0%2C0%2C0%2C5%5D%2C%5B0%2C1%2C0%2C0%2C-5%5D%2C%5B1%2C0%2C0%2C0%2C5%5D%2C%5B1%2C1%2C0%2C0%2C-5%5D%5D%3Bperimeter%3DorthogonalPerimeter%3BoutlineConnect%3D0%3BtargetShapes%3DumlLifeline%3BportConstraint%3Deastwest%3BnewEdgeStyle%3D%7B%26quot%3Bcurved%26quot%3B%3A0%2C%26quot%3Brounded%26quot%3B%3A0%7D%3B%22%20vertex%3D%221%22%20parent%3D%221%22%3E%3CmxGeometry%20x%3D%2285%22%20y%3D%22280%22%20width%3D%2210%22%20height%3D%2230%22%20as%3D%22geometry%22%2F%3E%3C%2FmxCell%3E%3C%2Froot%3E%3C%2FmxGraphModel%3E&lt;/span&gt;" style="html=1;points=[[0,0,0,0,5],[0,1,0,0,-5],[1,0,0,0,5],[1,1,0,0,-5]];perimeter=orthogonalPerimeter;outlineConnect=0;targetShapes=umlLifeline;portConstraint=eastwest;newEdgeStyle={&quot;curved&quot;:0,&quot;rounded&quot;:0};" vertex="1" parent="1">
          <mxGeometry x="526.25" y="620" width="10" height="30" as="geometry" />
        </mxCell>
        <mxCell id="bs0b1OAsjzUEzCfOvRUt-43" value="" style="endArrow=classic;html=1;rounded=0;entryX=0;entryY=0;entryDx=0;entryDy=5;entryPerimeter=0;" edge="1" parent="1" target="bs0b1OAsjzUEzCfOvRUt-42">
          <mxGeometry width="50" height="50" relative="1" as="geometry">
            <mxPoint x="347.5" y="625" as="sourcePoint" />
            <mxPoint x="435.5" y="340" as="targetPoint" />
          </mxGeometry>
        </mxCell>
        <mxCell id="bs0b1OAsjzUEzCfOvRUt-48" value="" style="endArrow=none;dashed=1;html=1;rounded=0;exitX=0.5;exitY=0;exitDx=0;exitDy=0;" edge="1" parent="1" source="bs0b1OAsjzUEzCfOvRUt-5" target="bs0b1OAsjzUEzCfOvRUt-49">
          <mxGeometry width="50" height="50" relative="1" as="geometry">
            <mxPoint x="342.5" y="800" as="sourcePoint" />
            <mxPoint x="341.5" y="420" as="targetPoint" />
          </mxGeometry>
        </mxCell>
        <mxCell id="bs0b1OAsjzUEzCfOvRUt-49" value="&lt;span style=&quot;color: rgb(237, 237, 237); font-family: monospace; font-size: 0px; text-align: start;&quot;&gt;%3CmxGraphModel%3E%3Croot%3E%3CmxCell%20id%3D%220%22%2F%3E%3CmxCell%20id%3D%221%22%20parent%3D%220%22%2F%3E%3CmxCell%20id%3D%222%22%20value%3D%22%22%20style%3D%22html%3D1%3Bpoints%3D%5B%5B0%2C0%2C0%2C0%2C5%5D%2C%5B0%2C1%2C0%2C0%2C-5%5D%2C%5B1%2C0%2C0%2C0%2C5%5D%2C%5B1%2C1%2C0%2C0%2C-5%5D%5D%3Bperimeter%3DorthogonalPerimeter%3BoutlineConnect%3D0%3BtargetShapes%3DumlLifeline%3BportConstraint%3Deastwest%3BnewEdgeStyle%3D%7B%26quot%3Bcurved%26quot%3B%3A0%2C%26quot%3Brounded%26quot%3B%3A0%7D%3B%22%20vertex%3D%221%22%20parent%3D%221%22%3E%3CmxGeometry%20x%3D%2285%22%20y%3D%22280%22%20width%3D%2210%22%20height%3D%2230%22%20as%3D%22geometry%22%2F%3E%3C%2FmxCell%3E%3C%2Froot%3E%3C%2FmxGraphModel%3E&lt;/span&gt;&lt;span style=&quot;color: rgb(237, 237, 237); font-family: monospace; font-size: 0px; text-align: start;&quot;&gt;%3CmxGraphModel%3E%3Croot%3E%3CmxCell%20id%3D%220%22%2F%3E%3CmxCell%20id%3D%221%22%20parent%3D%220%22%2F%3E%3CmxCell%20id%3D%222%22%20value%3D%22%22%20style%3D%22html%3D1%3Bpoints%3D%5B%5B0%2C0%2C0%2C0%2C5%5D%2C%5B0%2C1%2C0%2C0%2C-5%5D%2C%5B1%2C0%2C0%2C0%2C5%5D%2C%5B1%2C1%2C0%2C0%2C-5%5D%5D%3Bperimeter%3DorthogonalPerimeter%3BoutlineConnect%3D0%3BtargetShapes%3DumlLifeline%3BportConstraint%3Deastwest%3BnewEdgeStyle%3D%7B%26quot%3Bcurved%26quot%3B%3A0%2C%26quot%3Brounded%26quot%3B%3A0%7D%3B%22%20vertex%3D%221%22%20parent%3D%221%22%3E%3CmxGeometry%20x%3D%2285%22%20y%3D%22280%22%20width%3D%2210%22%20height%3D%2230%22%20as%3D%22geometry%22%2F%3E%3C%2FmxCell%3E%3C%2Froot%3E%3C%2FmxGraphModel%3E&lt;/span&gt;" style="html=1;points=[[0,0,0,0,5],[0,1,0,0,-5],[1,0,0,0,5],[1,1,0,0,-5]];perimeter=orthogonalPerimeter;outlineConnect=0;targetShapes=umlLifeline;portConstraint=eastwest;newEdgeStyle={&quot;curved&quot;:0,&quot;rounded&quot;:0};" vertex="1" parent="1">
          <mxGeometry x="336.25" y="660" width="10" height="30" as="geometry" />
        </mxCell>
        <mxCell id="bs0b1OAsjzUEzCfOvRUt-50" value="8. Confirmación" style="text;html=1;align=center;verticalAlign=middle;whiteSpace=wrap;rounded=0;" vertex="1" parent="1">
          <mxGeometry x="347.5" y="640" width="190" height="20" as="geometry" />
        </mxCell>
        <mxCell id="bs0b1OAsjzUEzCfOvRUt-51" value="" style="endArrow=classic;html=1;rounded=0;entryX=1;entryY=0;entryDx=0;entryDy=5;entryPerimeter=0;" edge="1" parent="1" target="bs0b1OAsjzUEzCfOvRUt-49">
          <mxGeometry width="50" height="50" relative="1" as="geometry">
            <mxPoint x="530" y="665" as="sourcePoint" />
            <mxPoint x="616.5" y="570" as="targetPoint" />
          </mxGeometry>
        </mxCell>
        <mxCell id="bs0b1OAsjzUEzCfOvRUt-80" value="" style="endArrow=none;dashed=1;html=1;rounded=0;entryX=0.5;entryY=1;entryDx=0;entryDy=0;" edge="1" parent="1" source="bs0b1OAsjzUEzCfOvRUt-86" target="bs0b1OAsjzUEzCfOvRUt-23">
          <mxGeometry width="50" height="50" relative="1" as="geometry">
            <mxPoint x="335" y="324" as="sourcePoint" />
            <mxPoint x="335" y="214" as="targetPoint" />
          </mxGeometry>
        </mxCell>
        <mxCell id="bs0b1OAsjzUEzCfOvRUt-23" value="" style="html=1;points=[[0,0,0,0,5],[0,1,0,0,-5],[1,0,0,0,5],[1,1,0,0,-5]];perimeter=orthogonalPerimeter;outlineConnect=0;targetShapes=umlLifeline;portConstraint=eastwest;newEdgeStyle={&quot;curved&quot;:0,&quot;rounded&quot;:0};" vertex="1" parent="1">
          <mxGeometry x="331.5" y="274" width="10" height="30" as="geometry" />
        </mxCell>
        <mxCell id="bs0b1OAsjzUEzCfOvRUt-83" value="" style="endArrow=none;dashed=1;html=1;rounded=0;exitX=0.449;exitY=-0.016;exitDx=0;exitDy=0;exitPerimeter=0;entryX=0.483;entryY=1.017;entryDx=0;entryDy=0;entryPerimeter=0;" edge="1" parent="1" source="bs0b1OAsjzUEzCfOvRUt-27" target="bs0b1OAsjzUEzCfOvRUt-82">
          <mxGeometry width="50" height="50" relative="1" as="geometry">
            <mxPoint x="124" y="490" as="sourcePoint" />
            <mxPoint x="122" y="265" as="targetPoint" />
            <Array as="points" />
          </mxGeometry>
        </mxCell>
        <mxCell id="bs0b1OAsjzUEzCfOvRUt-82" value="" style="html=1;points=[[0,0,0,0,5],[0,1,0,0,-5],[1,0,0,0,5],[1,1,0,0,-5]];perimeter=orthogonalPerimeter;outlineConnect=0;targetShapes=umlLifeline;portConstraint=eastwest;newEdgeStyle={&quot;curved&quot;:0,&quot;rounded&quot;:0};" vertex="1" parent="1">
          <mxGeometry x="117.5" y="320" width="10" height="30" as="geometry" />
        </mxCell>
        <mxCell id="bs0b1OAsjzUEzCfOvRUt-84" value="" style="endArrow=classic;html=1;rounded=0;entryX=1;entryY=0;entryDx=0;entryDy=5;entryPerimeter=0;" edge="1" parent="1" target="bs0b1OAsjzUEzCfOvRUt-82">
          <mxGeometry width="50" height="50" relative="1" as="geometry">
            <mxPoint x="330" y="326" as="sourcePoint" />
            <mxPoint x="442" y="296" as="targetPoint" />
          </mxGeometry>
        </mxCell>
        <mxCell id="bs0b1OAsjzUEzCfOvRUt-85" value="4. Mostrar formulario" style="text;html=1;align=center;verticalAlign=middle;whiteSpace=wrap;rounded=0;" vertex="1" parent="1">
          <mxGeometry x="145" y="300" width="170" height="20" as="geometry" />
        </mxCell>
        <mxCell id="bs0b1OAsjzUEzCfOvRUt-87" value="" style="endArrow=none;dashed=1;html=1;rounded=0;entryX=0.5;entryY=1;entryDx=0;entryDy=0;" edge="1" parent="1" source="bs0b1OAsjzUEzCfOvRUt-29" target="bs0b1OAsjzUEzCfOvRUt-86">
          <mxGeometry width="50" height="50" relative="1" as="geometry">
            <mxPoint x="337" y="390" as="sourcePoint" />
            <mxPoint x="337" y="304" as="targetPoint" />
          </mxGeometry>
        </mxCell>
        <mxCell id="bs0b1OAsjzUEzCfOvRUt-86" value="" style="html=1;points=[[0,0,0,0,5],[0,1,0,0,-5],[1,0,0,0,5],[1,1,0,0,-5]];perimeter=orthogonalPerimeter;outlineConnect=0;targetShapes=umlLifeline;portConstraint=eastwest;newEdgeStyle={&quot;curved&quot;:0,&quot;rounded&quot;:0};" vertex="1" parent="1">
          <mxGeometry x="330" y="350" width="10" height="30" as="geometry" />
        </mxCell>
        <mxCell id="bs0b1OAsjzUEzCfOvRUt-89" value="" style="endArrow=classic;html=1;rounded=0;entryX=0;entryY=0;entryDx=0;entryDy=5;entryPerimeter=0;" edge="1" parent="1" target="bs0b1OAsjzUEzCfOvRUt-86">
          <mxGeometry width="50" height="50" relative="1" as="geometry">
            <mxPoint x="120" y="355" as="sourcePoint" />
            <mxPoint x="462" y="280" as="targetPoint" />
          </mxGeometry>
        </mxCell>
        <mxCell id="bs0b1OAsjzUEzCfOvRUt-90" value="5. Enviar nuevo documento" style="text;html=1;align=center;verticalAlign=middle;whiteSpace=wrap;rounded=0;" vertex="1" parent="1">
          <mxGeometry x="145" y="330" width="170" height="20" as="geometry" />
        </mxCell>
        <mxCell id="bs0b1OAsjzUEzCfOvRUt-92" value="" style="endArrow=none;dashed=1;html=1;rounded=0;exitX=0.449;exitY=-0.016;exitDx=0;exitDy=0;exitPerimeter=0;" edge="1" parent="1" source="bs0b1OAsjzUEzCfOvRUt-4" target="bs0b1OAsjzUEzCfOvRUt-91">
          <mxGeometry width="50" height="50" relative="1" as="geometry">
            <mxPoint x="129" y="1089" as="sourcePoint" />
            <mxPoint x="129" y="520" as="targetPoint" />
            <Array as="points" />
          </mxGeometry>
        </mxCell>
        <mxCell id="bs0b1OAsjzUEzCfOvRUt-91" value="&lt;span style=&quot;color: rgb(237, 237, 237); font-family: monospace; font-size: 0px; text-align: start;&quot;&gt;%3CmxGraphModel%3E%3Croot%3E%3CmxCell%20id%3D%220%22%2F%3E%3CmxCell%20id%3D%221%22%20parent%3D%220%22%2F%3E%3CmxCell%20id%3D%222%22%20value%3D%22%22%20style%3D%22html%3D1%3Bpoints%3D%5B%5B0%2C0%2C0%2C0%2C5%5D%2C%5B0%2C1%2C0%2C0%2C-5%5D%2C%5B1%2C0%2C0%2C0%2C5%5D%2C%5B1%2C1%2C0%2C0%2C-5%5D%5D%3Bperimeter%3DorthogonalPerimeter%3BoutlineConnect%3D0%3BtargetShapes%3DumlLifeline%3BportConstraint%3Deastwest%3BnewEdgeStyle%3D%7B%26quot%3Bcurved%26quot%3B%3A0%2C%26quot%3Brounded%26quot%3B%3A0%7D%3B%22%20vertex%3D%221%22%20parent%3D%221%22%3E%3CmxGeometry%20x%3D%2285%22%20y%3D%22280%22%20width%3D%2210%22%20height%3D%2230%22%20as%3D%22geometry%22%2F%3E%3C%2FmxCell%3E%3C%2Froot%3E%3C%2FmxGraphModel%3E&lt;/span&gt;&lt;span style=&quot;color: rgb(237, 237, 237); font-family: monospace; font-size: 0px; text-align: start;&quot;&gt;%3CmxGraphModel%3E%3Croot%3E%3CmxCell%20id%3D%220%22%2F%3E%3CmxCell%20id%3D%221%22%20parent%3D%220%22%2F%3E%3CmxCell%20id%3D%222%22%20value%3D%22%22%20style%3D%22html%3D1%3Bpoints%3D%5B%5B0%2C0%2C0%2C0%2C5%5D%2C%5B0%2C1%2C0%2C0%2C-5%5D%2C%5B1%2C0%2C0%2C0%2C5%5D%2C%5B1%2C1%2C0%2C0%2C-5%5D%5D%3Bperimeter%3DorthogonalPerimeter%3BoutlineConnect%3D0%3BtargetShapes%3DumlLifeline%3BportConstraint%3Deastwest%3BnewEdgeStyle%3D%7B%26quot%3Bcurved%26quot%3B%3A0%2C%26quot%3Brounded%26quot%3B%3A0%7D%3B%22%20vertex%3D%221%22%20parent%3D%221%22%3E%3CmxGeometry%20x%3D%2285%22%20y%3D%22280%22%20width%3D%2210%22%20height%3D%2230%22%20as%3D%22geometry%22%2F%3E%3C%2FmxCell%3E%3C%2Froot%3E%3C%2FmxGraphModel%3E&lt;/span&gt;" style="html=1;points=[[0,0,0,0,5],[0,1,0,0,-5],[1,0,0,0,5],[1,1,0,0,-5]];perimeter=orthogonalPerimeter;outlineConnect=0;targetShapes=umlLifeline;portConstraint=eastwest;newEdgeStyle={&quot;curved&quot;:0,&quot;rounded&quot;:0};" vertex="1" parent="1">
          <mxGeometry x="126.25" y="710" width="10" height="30" as="geometry" />
        </mxCell>
        <mxCell id="_ZpzzuqIP7qaGjX6EEs7-1" value="" style="endArrow=open;endSize=12;dashed=1;html=1;rounded=0;entryX=1;entryY=0;entryDx=0;entryDy=5;entryPerimeter=0;" edge="1" parent="1" target="bs0b1OAsjzUEzCfOvRUt-91">
          <mxGeometry width="160" relative="1" as="geometry">
            <mxPoint x="340" y="715" as="sourcePoint" />
            <mxPoint x="170" y="540" as="targetPoint" />
          </mxGeometry>
        </mxCell>
      </root>
    </mxGraphModel>
  </diagram>
</mxfile>
